<svg width="1192" height="626" viewBox="0 0 1192 626" fill="none" xmlns="http://www.w3.org/2000/svg">
<g opacity="0.5">
<path d="M836 20C836 8.95431 844.954 0 856 0H953.974C958.825 0 963.511 1.7632 967.159 4.96124L992.341 27.0388C995.989 30.2368 1000.67 32 1005.53 32H1172C1183.05 32 1192 40.9543 1192 52V260C1192 271.046 1183.05 280 1172 280H856C844.954 280 836 271.046 836 260V20Z" fill="#9EB3FF"/>
<path d="M836 57C836 45.9543 844.954 37 856 37H953.974C958.825 37 963.511 38.7632 967.159 41.9612L992.341 64.0388C995.989 67.2368 1000.67 69 1005.53 69H1172C1183.05 69 1192 77.9543 1192 89V259C1192 270.046 1183.05 279 1172 279H856C844.954 279 836 270.046 836 259V57Z" fill="#D1DDFF"/>
<rect x="931" y="131" width="169" height="58" rx="8" fill="#686A70"/>
<path d="M972.882 170L972.855 167.02L979.964 160.484C981.81 158.721 982.808 157.627 982.808 156.055C982.808 154.291 981.482 153.197 979.663 153.211C977.804 153.197 976.587 154.373 976.601 156.273H972.691C972.677 152.404 975.548 149.93 979.718 149.93C983.956 149.93 986.773 152.35 986.773 155.781C986.773 158.037 985.679 159.883 981.605 163.574L978.597 166.5V166.609H987.046V170H972.882ZM996.255 170.273C991.293 170.273 988.298 166.582 988.298 160.102C988.298 153.635 991.32 149.93 996.255 149.93C1001.19 149.93 1004.21 153.635 1004.21 160.102C1004.21 166.609 1001.2 170.273 996.255 170.273ZM992.509 160.102C992.482 164.668 993.959 166.883 996.255 166.883C998.552 166.883 1000.02 164.668 1000 160.102C1000.02 155.576 998.539 153.307 996.255 153.293C993.972 153.307 992.509 155.576 992.509 160.102ZM1005.66 170L1005.63 167.02L1012.74 160.484C1014.58 158.721 1015.58 157.627 1015.58 156.055C1015.58 154.291 1014.26 153.197 1012.44 153.211C1010.58 153.197 1009.36 154.373 1009.38 156.273H1005.46C1005.45 152.404 1008.32 149.93 1012.49 149.93C1016.73 149.93 1019.55 152.35 1019.55 155.781C1019.55 158.037 1018.45 159.883 1014.38 163.574L1011.37 166.5V166.609H1019.82V170H1005.66ZM1021.35 170L1021.32 167.02L1028.43 160.484C1030.27 158.721 1031.27 157.627 1031.27 156.055C1031.27 154.291 1029.95 153.197 1028.13 153.211C1026.27 153.197 1025.05 154.373 1025.06 156.273H1021.15C1021.14 152.404 1024.01 149.93 1028.18 149.93C1032.42 149.93 1035.24 152.35 1035.24 155.781C1035.24 158.037 1034.14 159.883 1030.07 163.574L1027.06 166.5V166.609H1035.51V170H1021.35ZM1057.19 147.66V165.953H1053.72V157.805H1047.54V155.07H1053.72V153.156H1047.54V150.422H1053.72V147.66H1057.19ZM1037.61 162.727V149.219H1041.06V159.855C1044.09 159.814 1046.96 159.623 1050.05 159.062L1050.41 161.879C1046.67 162.59 1043.32 162.713 1039.61 162.727H1037.61ZM1040.65 172.078V164.312H1044.15V169.289H1057.79V172.078H1040.65Z" fill="#F6F8FB"/>
<rect x="1090" y="217" width="69" height="38" rx="19" fill="#F6F8FB"/>
<path d="M1111.11 243L1111.09 240.871L1116.17 236.203C1117.49 234.943 1118.2 234.162 1118.2 233.039C1118.2 231.779 1117.26 230.998 1115.96 231.008C1114.63 230.998 1113.76 231.838 1113.77 233.195H1110.98C1110.97 230.432 1113.02 228.664 1116 228.664C1119.02 228.664 1121.04 230.393 1121.04 232.844C1121.04 234.455 1120.25 235.773 1117.34 238.41L1115.2 240.5V240.578H1121.23V243H1111.11ZM1137.07 227.023V244.797H1134.66V235.754H1133.04V244.016H1130.72V227.492H1133.04V233.762H1134.66V227.023H1137.07ZM1121.52 239.426C1125.14 237.297 1126.71 234.689 1127.04 231.203H1122.42V229.211H1129.47C1129.46 234.172 1127.97 238.234 1122.96 241.145L1121.52 239.426Z" fill="#919499"/>
</g>
<g opacity="0.5">
<path d="M836 366C836 354.954 844.954 346 856 346H953.974C958.825 346 963.511 347.763 967.159 350.961L992.341 373.039C995.989 376.237 1000.67 378 1005.53 378H1172C1183.05 378 1192 386.954 1192 398V606C1192 617.046 1183.05 626 1172 626H856C844.954 626 836 617.046 836 606V366Z" fill="#CD9EFF"/>
<path d="M836 403C836 391.954 844.954 383 856 383H953.974C958.825 383 963.511 384.763 967.159 387.961L992.341 410.039C995.989 413.237 1000.67 415 1005.53 415H1172C1183.05 415 1192 423.954 1192 435V605C1192 616.046 1183.05 625 1172 625H856C844.954 625 836 616.046 836 605V403Z" fill="#E5D1FF"/>
<rect x="931" y="477" width="166" height="58" rx="8" fill="#686A70"/>
<path d="M972.913 516L972.886 513.02L979.995 506.484C981.841 504.721 982.839 503.627 982.839 502.055C982.839 500.291 981.513 499.197 979.695 499.211C977.835 499.197 976.618 500.373 976.632 502.273H972.722C972.708 498.404 975.579 495.93 979.749 495.93C983.987 495.93 986.804 498.35 986.804 501.781C986.804 504.037 985.71 505.883 981.636 509.574L978.628 512.5V512.609H987.077V516H972.913ZM996.287 516.273C991.324 516.273 988.33 512.582 988.33 506.102C988.33 499.635 991.351 495.93 996.287 495.93C1001.22 495.93 1004.24 499.635 1004.24 506.102C1004.24 512.609 1001.24 516.273 996.287 516.273ZM992.541 506.102C992.513 510.668 993.99 512.883 996.287 512.883C998.584 512.883 1000.05 510.668 1000.03 506.102C1000.05 501.576 998.57 499.307 996.287 499.293C994.004 499.307 992.541 501.576 992.541 506.102ZM1014.22 496.203V516H1010.09V500.113H1009.98L1005.44 502.957V499.32L1010.34 496.203H1014.22ZM1024.63 495.93C1028.73 495.943 1032.62 498.391 1032.62 505.582C1032.63 512.309 1029.44 516.273 1024.47 516.273C1020.49 516.273 1017.75 513.771 1017.36 510.422H1021.4C1021.75 511.885 1022.88 512.746 1024.47 512.746C1027.16 512.746 1028.58 510.326 1028.6 506.375H1028.43C1027.5 508.125 1025.55 509.164 1023.35 509.164C1019.79 509.164 1017.17 506.484 1017.14 502.793C1017.14 498.814 1020.16 495.916 1024.63 495.93ZM1021.16 502.684C1021.16 504.639 1022.59 506.156 1024.63 506.156C1026.64 506.156 1028.19 504.557 1028.19 502.656C1028.16 500.77 1026.68 499.17 1024.66 499.156C1022.64 499.17 1021.13 500.715 1021.16 502.684ZM1054.16 493.66V511.953H1050.68V503.805H1044.5V501.07H1050.68V499.156H1044.5V496.422H1050.68V493.66H1054.16ZM1034.58 508.727V495.219H1038.02V505.855C1041.06 505.814 1043.93 505.623 1047.02 505.062L1047.38 507.879C1043.64 508.59 1040.29 508.713 1036.58 508.727H1034.58ZM1037.61 518.078V510.312H1041.11V515.289H1054.76V518.078H1037.61Z" fill="#F6F8FB"/>
<rect x="1090" y="563" width="66" height="38" rx="19" fill="#F6F8FB"/>
<path d="M1117.21 574.859V589H1114.26V577.652H1114.18L1110.94 579.684V577.086L1114.43 574.859H1117.21ZM1134.23 573.023V590.797H1131.83V581.754H1130.21V590.016H1127.89V573.492H1130.21V579.762H1131.83V573.023H1134.23ZM1118.69 585.426C1122.31 583.297 1123.87 580.689 1124.21 577.203H1119.59V575.211H1126.64C1126.63 580.172 1125.14 584.234 1120.13 587.145L1118.69 585.426Z" fill="#919499"/>
</g>
<g opacity="0.5">
<path d="M416 366C416 354.954 424.954 346 436 346H533.974C538.825 346 543.511 347.763 547.159 350.961L572.341 373.039C575.989 376.237 580.675 378 585.526 378H752C763.046 378 772 386.954 772 398V606C772 617.046 763.046 626 752 626H436C424.954 626 416 617.046 416 606V366Z" fill="#FFC09E"/>
<path d="M416 403C416 391.954 424.954 383 436 383H533.974C538.825 383 543.511 384.763 547.159 387.961L572.341 410.039C575.989 413.237 580.675 415 585.526 415H752C763.046 415 772 423.954 772 435V605C772 616.046 763.046 625 752 625H436C424.954 625 416 616.046 416 605V403Z" fill="#FFDFD1"/>
<rect x="511" y="477" width="170" height="58" rx="8" fill="#686A70"/>
<path d="M552.685 516L552.657 513.02L559.767 506.484C561.612 504.721 562.611 503.627 562.611 502.055C562.611 500.291 561.284 499.197 559.466 499.211C557.607 499.197 556.39 500.373 556.404 502.273H552.493C552.48 498.404 555.351 495.93 559.521 495.93C563.759 495.93 566.575 498.35 566.575 501.781C566.575 504.037 565.482 505.883 561.407 509.574L558.4 512.5V512.609H566.849V516H552.685ZM576.058 516.273C571.095 516.273 568.101 512.582 568.101 506.102C568.101 499.635 571.123 495.93 576.058 495.93C580.994 495.93 584.015 499.635 584.015 506.102C584.015 512.609 581.007 516.273 576.058 516.273ZM572.312 506.102C572.285 510.668 573.761 512.883 576.058 512.883C578.355 512.883 579.818 510.668 579.804 506.102C579.818 501.576 578.341 499.307 576.058 499.293C573.775 499.307 572.312 501.576 572.312 506.102ZM585.459 516L585.432 513.02L592.541 506.484C594.387 504.721 595.385 503.627 595.385 502.055C595.385 500.291 594.059 499.197 592.24 499.211C590.381 499.197 589.164 500.373 589.178 502.273H585.268C585.254 498.404 588.125 495.93 592.295 495.93C596.533 495.93 599.35 498.35 599.35 501.781C599.35 504.037 598.256 505.883 594.182 509.574L591.174 512.5V512.609H599.623V516H585.459ZM608.832 516.273C603.87 516.273 600.875 512.582 600.875 506.102C600.875 499.635 603.897 495.93 608.832 495.93C613.768 495.93 616.789 499.635 616.789 506.102C616.789 512.609 613.782 516.273 608.832 516.273ZM605.086 506.102C605.059 510.668 606.536 512.883 608.832 512.883C611.129 512.883 612.592 510.668 612.579 506.102C612.592 501.576 611.116 499.307 608.832 499.293C606.549 499.307 605.086 501.576 605.086 506.102ZM638.386 493.66V511.953H634.913V503.805H628.733V501.07H634.913V499.156H628.733V496.422H634.913V493.66H638.386ZM618.807 508.727V495.219H622.253V505.855C625.288 505.814 628.159 505.623 631.249 505.062L631.604 507.879C627.872 508.59 624.522 508.713 620.804 508.727H618.807ZM621.843 518.078V510.312H625.343V515.289H638.987V518.078H621.843Z" fill="#F6F8FB"/>
<rect x="670" y="563" width="66" height="38" rx="19" fill="#F6F8FB"/>
<path d="M697.207 574.859V589H694.258V577.652H694.18L690.938 579.684V577.086L694.434 574.859H697.207ZM714.234 573.023V590.797H711.832V581.754H710.211V590.016H707.887V573.492H710.211V579.762H711.832V573.023H714.234ZM698.688 585.426C702.311 583.297 703.873 580.689 704.205 577.203H699.586V575.211H706.637C706.627 580.172 705.143 584.234 700.133 587.145L698.688 585.426Z" fill="#919499"/>
</g>
<g opacity="0.5">
<path d="M0 366C0 354.954 8.95431 346 20 346H117.974C122.825 346 127.511 347.763 131.159 350.961L156.341 373.039C159.989 376.237 164.675 378 169.526 378H336C347.046 378 356 386.954 356 398V606C356 617.046 347.046 626 336 626H20C8.9543 626 0 617.046 0 606V366Z" fill="#99CEFF"/>
<path d="M0 403C0 391.954 8.95431 383 20 383H117.974C122.825 383 127.511 384.763 131.159 387.961L156.341 410.039C159.989 413.237 164.675 415 169.526 415H336C347.046 415 356 423.954 356 435V605C356 616.046 347.046 625 336 625H20C8.9543 625 0 616.046 0 605V403Z" fill="#D1EBFF"/>
<rect x="95" y="477" width="165" height="58" rx="8" fill="#686A70"/>
<path d="M136.864 516L136.837 513.02L143.946 506.484C145.792 504.721 146.79 503.627 146.79 502.055C146.79 500.291 145.464 499.197 143.646 499.211C141.786 499.197 140.57 500.373 140.583 502.273H136.673C136.659 498.404 139.53 495.93 143.7 495.93C147.939 495.93 150.755 498.35 150.755 501.781C150.755 504.037 149.661 505.883 145.587 509.574L142.579 512.5V512.609H151.029V516H136.864ZM160.238 516.273C155.275 516.273 152.281 512.582 152.281 506.102C152.281 499.635 155.302 495.93 160.238 495.93C165.173 495.93 168.195 499.635 168.195 506.102C168.195 512.609 165.187 516.273 160.238 516.273ZM156.492 506.102C156.464 510.668 157.941 512.883 160.238 512.883C162.535 512.883 163.998 510.668 163.984 506.102C163.998 501.576 162.521 499.307 160.238 499.293C157.955 499.307 156.492 501.576 156.492 506.102ZM169.639 516L169.611 513.02L176.721 506.484C178.566 504.721 179.564 503.627 179.564 502.055C179.564 500.291 178.238 499.197 176.42 499.211C174.561 499.197 173.344 500.373 173.357 502.273H169.447C169.434 498.404 172.305 495.93 176.475 495.93C180.713 495.93 183.529 498.35 183.529 501.781C183.529 504.037 182.436 505.883 178.361 509.574L175.354 512.5V512.609H183.803V516H169.639ZM193.86 496.203V516H189.731V500.113H189.621L185.082 502.957V499.32L189.977 496.203H193.86ZM217.206 493.66V511.953H213.733V503.805H207.554V501.07H213.733V499.156H207.554V496.422H213.733V493.66H217.206ZM197.628 508.727V495.219H201.073V505.855C204.108 505.814 206.979 505.623 210.069 505.062L210.425 507.879C206.692 508.59 203.343 508.713 199.624 508.727H197.628ZM200.663 518.078V510.312H204.163V515.289H217.807V518.078H200.663Z" fill="#F6F8FB"/>
<rect x="254" y="563" width="70" height="38" rx="19" fill="#F6F8FB"/>
<path d="M280.582 589.195C277.662 589.186 274.869 587.438 274.879 582.262C274.889 577.486 277.164 574.664 280.699 574.664C283.541 574.664 285.494 576.461 285.777 578.785H282.887C282.652 577.799 281.842 577.184 280.699 577.184C278.775 577.184 277.77 578.912 277.75 581.695H277.887C278.541 580.436 279.938 579.703 281.5 579.703C284.049 579.703 285.943 581.607 285.934 584.273C285.943 587.145 283.775 589.205 280.582 589.195ZM278.043 584.352C278.062 585.738 279.117 586.881 280.562 586.871C282.018 586.881 283.082 585.777 283.082 584.352C283.082 582.936 282.037 581.842 280.602 581.832C279.156 581.842 278.062 582.975 278.043 584.352ZM301.711 573.023V590.797H299.309V581.754H297.688V590.016H295.363V573.492H297.688V579.762H299.309V573.023H301.711ZM286.164 585.426C289.787 583.297 291.35 580.689 291.682 577.203H287.062V575.211H294.113C294.104 580.172 292.619 584.234 287.609 587.145L286.164 585.426Z" fill="#919499"/>
</g>
<path d="M416 20C416 8.95431 424.954 0 436 0H533.974C538.825 0 543.511 1.7632 547.159 4.96124L572.341 27.0388C575.989 30.2368 580.675 32 585.526 32H752C763.046 32 772 40.9543 772 52V260C772 271.046 763.046 280 752 280H436C424.954 280 416 271.046 416 260V20Z" fill="#CC942D"/>
<path d="M416 57C416 45.9543 424.954 37 436 37H533.974C538.825 37 543.511 38.7632 547.159 41.9612L572.341 64.0388C575.989 67.2368 580.675 69 585.526 69H752C763.046 69 772 77.9543 772 89V259C772 270.046 763.046 279 752 279H436C424.954 279 416 270.046 416 259V57Z" fill="#FDD16A"/>
<rect x="494" y="131" width="201" height="58" rx="8" fill="#1E1F20"/>
<path d="M555.986 147.66V165.816H552.514V156.902H548.439V154.086H552.514V147.66H555.986ZM534.877 160.211C538.992 158.926 540.852 155.686 540.865 152.5V152.117H535.861V149.328H549.369V152.117H544.42V152.527C544.406 155.412 546.184 158.488 550.135 159.773L548.412 162.535C545.664 161.633 543.764 159.828 542.684 157.6C541.576 160.074 539.594 162.084 536.654 163.055L534.877 160.211ZM539.471 172.078V164.23H542.971V169.289H556.588V172.078H539.471ZM565.579 155.207C565.579 158.98 566.932 162.768 570.473 164.668L568.559 167.211C566.317 166.062 564.827 164.053 563.952 161.633C563.09 164.271 561.6 166.5 559.344 167.812L557.348 165.188C560.944 163.109 562.27 159.049 562.297 155.207V154.633H558.278V151.844H562.297V148.48H565.551V151.844H569.489V154.633H565.579V155.207ZM568.039 159.91V157.066H570.965V148.043H574.246V171.367H570.965V159.91H568.039ZM576.024 172.516V147.633H579.332V172.516H576.024ZM595.318 154.414C595.304 158.434 597.382 162.74 601.552 164.477L599.665 167.211C596.739 165.967 594.716 163.492 593.595 160.484C592.474 163.752 590.409 166.486 587.47 167.84L585.474 165.078C589.603 163.232 591.736 158.625 591.736 154.414V152.883H586.458V150.039H600.513V152.883H595.318V154.414ZM602.974 172.516V147.633H606.501V172.516H602.974ZM629.546 147.66V166.445H626.046V164.477H621.289V162.098H626.046V147.66H629.546ZM608.382 158.68C612.935 158.652 619.088 158.584 624.351 157.941L624.543 160.43C622.574 160.758 620.537 160.99 618.527 161.141V165.871H615.027V169.289H630.093V172.078H611.554V164.641H615.027V161.346C612.798 161.428 610.679 161.441 608.793 161.441L608.382 158.68ZM610.214 152.965C610.214 150.312 612.771 148.494 616.476 148.508C620.086 148.494 622.67 150.312 622.683 152.965C622.67 155.631 620.086 157.354 616.476 157.34C612.771 157.354 610.214 155.631 610.214 152.965ZM613.523 152.965C613.509 154.168 614.699 154.838 616.476 154.824C618.144 154.838 619.347 154.168 619.375 152.965C619.347 151.734 618.144 151.051 616.476 151.051C614.699 151.051 613.509 151.734 613.523 152.965ZM640.67 153.266C640.684 157.941 642.57 162.494 646.713 164.285L644.58 167.074C641.818 165.734 639.959 163.246 638.92 160.17C637.854 163.438 635.939 166.117 633.096 167.512L630.908 164.668C635.174 162.74 637.115 157.941 637.143 153.266V149.547H640.67V153.266ZM643.924 158.27V155.453H648.818V147.633H652.264V172.57H648.818V158.27H643.924Z" fill="#F6F8FB"/>
<rect x="670" y="217" width="70" height="38" rx="19" fill="white"/>
<path d="M696.348 243.195C693.242 243.195 691.016 241.486 690.957 239.016H693.926C693.975 240.07 695 240.764 696.367 240.773C697.773 240.764 698.779 239.982 698.77 238.84C698.779 237.688 697.754 236.877 696.094 236.867H694.785V234.699H696.094C697.49 234.699 698.467 233.938 698.457 232.824C698.467 231.74 697.637 230.998 696.387 231.008C695.137 230.998 694.111 231.701 694.062 232.785H691.25C691.299 230.354 693.486 228.664 696.387 228.664C699.336 228.664 701.299 230.412 701.289 232.648C701.299 234.23 700.195 235.354 698.613 235.637V235.754C700.693 236.008 701.836 237.268 701.816 239.035C701.836 241.457 699.541 243.195 696.348 243.195ZM717.633 227.023V244.797H715.23V235.754H713.609V244.016H711.285V227.492H713.609V233.762H715.23V227.023H717.633ZM702.086 239.426C705.709 237.297 707.271 234.689 707.604 231.203H702.984V229.211H710.035C710.025 234.172 708.541 238.234 703.531 241.145L702.086 239.426Z" fill="#353638"/>
<path d="M0 20C0 8.95431 8.95431 0 20 0H117.974C122.825 0 127.511 1.7632 131.159 4.96124L156.341 27.0388C159.989 30.2368 164.675 32 169.526 32H336C347.046 32 356 40.9543 356 52V260C356 271.046 347.046 280 336 280H20C8.9543 280 0 271.046 0 260V20Z" fill="#919499"/>
<path d="M0 57C0 45.9543 8.95431 37 20 37H117.974C122.825 37 127.511 38.7632 131.159 41.9612L156.341 64.0388C159.989 67.2368 164.675 69 169.526 69H336C347.046 69 356 77.9543 356 89V259C356 270.046 347.046 279 336 279H20C8.9543 279 0 270.046 0 259V57Z" fill="#D4D6DC"/>
<rect x="78" y="131" width="201" height="58" rx="8" fill="#1E1F20"/>
<path d="M171.331 162.625V164.758H162.941V171.109H160.362V164.758H152.019V162.625H171.331ZM153.073 159.273C157.304 158.758 160.081 156.59 160.339 154.469H153.8V152.406H160.362V149.922H162.941V152.406H169.527V154.469H162.987C163.234 156.566 165.999 158.758 170.23 159.273L169.269 161.336C165.765 160.891 163.046 159.355 161.675 157.316C160.292 159.379 157.538 160.891 154.011 161.336L153.073 159.273ZM188.155 149.898V158.172H191.295V160.352H188.155V171.039H185.553V149.898H188.155ZM171.444 165.25C176.6 162.672 179.389 159.086 179.905 154.258H172.592V152.102H182.553C182.541 158.324 179.963 163.797 172.92 167.266L171.444 165.25ZM207.697 149.898V158.336H210.955V160.492H207.697V171.086H205.119V149.898H207.697ZM190.986 155.242V153.156H196.002V150.203H198.603V153.156H203.478V155.242H190.986ZM191.97 161.617C191.947 158.688 194.22 156.613 197.314 156.625C200.361 156.613 202.623 158.688 202.634 161.617C202.623 164.535 200.361 166.586 197.314 166.586C194.22 166.586 191.947 164.535 191.97 161.617ZM194.455 161.617C194.443 163.34 195.65 164.441 197.314 164.43C198.943 164.441 200.127 163.34 200.15 161.617C200.127 159.895 198.943 158.758 197.314 158.758C195.65 158.758 194.443 159.895 194.455 161.617ZM228.341 149.898V171.086H225.716V149.898H228.341ZM210.786 165.25C216.341 162.613 218.895 159.027 219.364 154.211H211.864V152.148H222.013C222.013 158.453 219.563 163.809 212.145 167.336L210.786 165.25Z" fill="#F6F8FB"/>
<rect x="102" y="148" width="24" height="24" rx="4" fill="#686A70"/>
<path d="M108 160H120" stroke="#D4D6DC" stroke-width="2"/>
<path d="M114 166L114 154" stroke="#D4D6DC" stroke-width="2"/>
</svg>
