<svg width="356" height="280" viewBox="0 0 356 280" fill="none" xmlns="http://www.w3.org/2000/svg">
<path d="M0 20C0 8.95431 8.95431 0 20 0H117.974C122.825 0 127.511 1.7632 131.159 4.96124L156.341 27.0388C159.989 30.2368 164.675 32 169.526 32H336C347.046 32 356 40.9543 356 52V260C356 271.046 347.046 280 336 280H20C8.9543 280 0 271.046 0 260V20Z" fill="#5BA6FC"/>
<path d="M0 57C0 45.9543 8.95431 37 20 37H117.974C122.825 37 127.511 38.7632 131.159 41.9612L156.341 64.0388C159.989 67.2368 164.675 69 169.526 69H336C347.046 69 356 77.9543 356 89V259C356 270.046 347.046 279 336 279H20C8.9543 279 0 270.046 0 259V57Z" fill="#99CEFF"/>
</svg>
