<svg width="278" height="80" viewBox="0 0 278 80" fill="none" xmlns="http://www.w3.org/2000/svg">
<g clip-path="url(#clip0_36_102)">
<path d="M94.5528 54.0311C93.9672 52.2353 93.5963 50.7712 93.4401 49.6391H93.323C92.0737 51.5911 90.5316 52.938 88.6967 53.6798C86.9008 54.3825 84.8707 54.7339 82.6064 54.7339C79.7954 54.7339 77.5506 54.0702 75.8718 52.7428C74.1931 51.3764 73.3537 49.4634 73.3537 47.0038C73.3537 44.8566 73.7441 43.1193 74.5249 41.7919C75.3448 40.4255 76.7307 39.2543 78.6828 38.2782C80.2444 37.5365 82.5868 36.9118 85.7101 36.4043C87.2327 36.17 88.1892 35.9944 88.5796 35.8772C89.9069 35.5259 90.883 35.1745 91.5076 34.8231C92.1323 34.4718 92.4446 33.9838 92.4446 33.3591V31.6609C92.4446 30.4896 91.9761 29.5917 91.0391 28.967C90.1021 28.3424 88.8724 28.0301 87.3498 28.0301C85.5539 28.0301 84.1485 28.2838 83.1334 28.7914C82.1183 29.2599 81.4937 29.8845 81.2595 30.6653C81.1033 31.1338 81.0252 31.7585 81.0252 32.5393C81.0252 32.9687 81.0447 33.2615 81.0838 33.4177L74.5835 34.4718C74.4273 34.0033 74.3493 33.4177 74.3493 32.7149C74.3493 31.0752 74.8178 29.5136 75.7547 28.0301C76.7307 26.5075 78.1752 25.2777 80.0882 24.3407C82.0012 23.3647 84.3046 22.8767 86.9984 22.8767C95.3141 22.8767 99.4719 26.1171 99.4719 32.5978V46.4768C99.6671 48.663 99.9989 51.1812 100.467 54.0311H94.5528ZM80.2639 46.0668C80.2639 47.2381 80.6348 48.097 81.3766 48.6435C82.1574 49.1901 83.4652 49.4634 85.3002 49.4634C87.2912 49.4634 88.97 48.8387 90.3364 47.5894C91.7419 46.3011 92.4446 44.7004 92.4446 42.7874V38.6882C91.7028 39.2738 90.5511 39.8008 88.9895 40.2693C88.0135 40.5426 87.1936 40.7378 86.5299 40.8549C84.7731 41.2063 83.5433 41.5381 82.8406 41.8505C81.1228 42.5922 80.2639 43.9977 80.2639 46.0668Z" fill="#1E1F20"/>
<path d="M182.364 54.0311C181.778 52.2353 181.408 50.7712 181.251 49.6391H181.134C179.885 51.5911 178.343 52.938 176.508 53.6798C174.712 54.3825 172.682 54.7339 170.418 54.7339C167.607 54.7339 165.362 54.0702 163.683 52.7428C162.004 51.3764 161.165 49.4634 161.165 47.0038C161.165 44.8566 161.555 43.1193 162.336 41.7919C163.156 40.4255 164.542 39.2543 166.494 38.2782C168.056 37.5365 170.398 36.9118 173.521 36.4043C175.044 36.17 176 35.9944 176.391 35.8772C177.718 35.5259 178.694 35.1745 179.319 34.8231C179.944 34.4718 180.256 33.9838 180.256 33.3591V31.6609C180.256 30.4896 179.787 29.5917 178.85 28.967C177.913 28.3424 176.684 28.0301 175.161 28.0301C173.365 28.0301 171.96 28.2838 170.945 28.7914C169.93 29.2599 169.305 29.8845 169.071 30.6653C168.915 31.1338 168.836 31.7585 168.836 32.5393C168.836 32.9687 168.856 33.2615 168.895 33.4177L162.395 34.4718C162.239 34.0033 162.161 33.4177 162.161 32.7149C162.161 31.0752 162.629 29.5136 163.566 28.0301C164.542 26.5075 165.987 25.2777 167.9 24.3407C169.813 23.3647 172.116 22.8767 174.81 22.8767C183.125 22.8767 187.283 26.1171 187.283 32.5978V46.4768C187.478 48.663 187.81 51.1812 188.279 54.0311H182.364ZM168.075 46.0668C168.075 47.2381 168.446 48.097 169.188 48.6435C169.969 49.1901 171.277 49.4634 173.111 49.4634C175.103 49.4634 176.781 48.8387 178.148 47.5894C179.553 46.3011 180.256 44.7004 180.256 42.7874V38.6882C179.514 39.2738 178.362 39.8008 176.801 40.2693C175.825 40.5426 175.005 40.7378 174.341 40.8549C172.584 41.2063 171.355 41.5381 170.652 41.8505C168.934 42.5922 168.075 43.9977 168.075 46.0668Z" fill="#1E1F20"/>
<path d="M103.15 24.1837H109.533L109.826 28.5758C112.051 25.1792 115.545 23.481 120.308 23.481C126.594 23.481 129.737 27.3265 129.737 35.0175V54.6354H122.709V36.1887C122.709 33.7682 122.241 32.0113 121.304 30.9182C120.406 29.8251 119.001 29.2785 117.088 29.2785C115.175 29.2785 113.613 29.8251 112.403 30.9182C111.231 31.9723 110.49 33.4754 110.177 35.4274V54.6354H103.15V24.1837Z" fill="#1E1F20"/>
<path d="M132.158 24.1837H138.541L138.833 28.5758C141.059 25.1792 144.553 23.481 149.316 23.481C155.601 23.481 158.744 27.3265 158.744 35.0175V54.6354H151.717V36.1887C151.717 33.7682 151.248 32.0113 150.311 30.9182C149.413 29.8251 148.008 29.2785 146.095 29.2785C144.182 29.2785 142.62 29.8251 141.41 30.9182C140.239 31.9723 139.497 33.4754 139.185 35.4274V54.6354H132.158V24.1837Z" fill="#1E1F20"/>
<path d="M229.858 14.4163H237.11V54.9057H229.858V14.4163Z" fill="#1E1F20"/>
<path fill-rule="evenodd" clip-rule="evenodd" d="M21.0189 10.7903C16.8574 16.6233 13.135 26.1966 12.0729 29.9549C10.7266 34.7192 9.90827 39.6492 10.6934 44.2301C11.5077 48.9816 14.0153 53.1523 18.8355 56.2453C23.5876 59.2946 28.5082 58.9891 32.7493 56.9138C35.6398 55.4995 38.2307 53.2723 40.4232 50.744C42.6157 53.2723 45.2066 55.4995 48.097 56.9138C52.3381 58.9891 57.2587 59.2946 62.0108 56.2453C66.831 53.1523 69.3387 48.9816 70.153 44.2301C70.9381 39.6492 70.1198 34.7192 68.7734 29.9549C67.7114 26.1966 63.989 16.6233 59.8275 10.7903L54.7198 14.4343C58.3173 19.4769 61.7881 28.3085 62.7355 31.6611C63.9897 36.0993 64.5193 39.9581 63.9688 43.1702C63.4475 46.2119 61.936 48.8383 58.6223 50.9646C56.0093 52.6413 53.4603 52.553 50.8548 51.278C49.0415 50.3907 47.2388 48.9287 45.5737 47.0958C46.0992 46.1946 46.6241 45.1591 47.1017 44.0298C48.2493 41.3165 49.2318 37.8118 49.2318 33.9452C49.2318 29.4461 48.5039 25.8163 47.3573 23.141C46.7852 21.8061 46.0766 20.6343 45.235 19.7125C44.4202 18.8201 43.3027 17.9734 41.8995 17.6927C41.0409 17.521 40.4232 17.5482 40.4232 17.5482C40.4232 17.5482 39.8763 17.5068 38.9468 17.6927C37.5436 17.9734 36.4262 18.8201 35.6114 19.7125C34.7697 20.6343 34.0611 21.8061 33.4891 23.141C32.3425 25.8163 31.6145 29.4461 31.6145 33.9452C31.6145 37.8118 32.5971 41.3165 33.7446 44.0298C34.2222 45.1591 34.7472 46.1946 35.2727 47.0958C33.6075 48.9287 31.8049 50.3907 29.9916 51.278C27.386 52.553 24.8371 52.6413 22.224 50.9646C18.9104 48.8383 17.3989 46.2119 16.8776 43.1702C16.3271 39.9581 16.8567 36.0993 18.1109 31.6611C19.0583 28.3085 22.5291 19.4769 26.1266 14.4343L21.0189 10.7903ZM40.4232 23.7713C40.3905 23.7971 40.3302 23.8497 40.2449 23.9431C39.9885 24.2239 39.6252 24.7514 39.2561 25.6126C38.5204 27.3293 37.8889 30.0785 37.8889 33.9452C37.8889 36.7713 38.6144 39.4364 39.5234 41.5857C39.8227 42.2933 40.1308 42.9197 40.4232 43.4567C40.7155 42.9197 41.0237 42.2933 41.3229 41.5857C42.232 39.4364 42.9575 36.7713 42.9575 33.9452C42.9575 30.0785 42.326 27.3293 41.5902 25.6126C41.2211 24.7514 40.8579 24.2239 40.6015 23.9431C40.5161 23.8497 40.4559 23.7971 40.4232 23.7713Z" fill="#1E1F20"/>
<path fill-rule="evenodd" clip-rule="evenodd" d="M209.213 58.5037C205.051 52.6707 201.329 43.0974 200.267 39.3391C198.92 34.5748 198.102 29.6448 198.887 25.0639C199.701 20.3124 202.209 16.1416 207.029 13.0487C211.781 9.99939 216.702 10.3049 220.943 12.3801C223.281 13.524 225.422 15.1993 227.316 17.1356L222.841 21.5344C221.354 20.0118 219.774 18.7934 218.185 18.016C215.58 16.741 213.031 16.6527 210.418 18.3294C207.104 20.4556 205.593 23.0821 205.071 26.1237C204.763 27.9242 204.794 29.9279 205.101 32.1229H219.704H222.606V38.3973H219.704H206.535C207.729 42.1796 210.97 50.1631 214.32 54.8597L209.213 58.5037Z" fill="#1E1F20"/>
<path fill-rule="evenodd" clip-rule="evenodd" d="M247.449 30.6118H240.197L251.27 55.2137C250.594 57.8085 249.54 60.0452 246.151 61.9476C243.538 63.6243 240.989 63.536 238.384 62.261C236.795 61.4836 235.215 60.2652 233.728 58.7426L229.253 63.1414C231.147 65.0777 233.288 66.753 235.626 67.8969C239.867 69.9721 244.788 70.2776 249.54 67.2283C254.36 64.1354 255.597 60.0452 257.7 55.1921L267.743 30.6118H260.506L254.337 46.5367L247.449 30.6118Z" fill="#1E1F20"/>
</g>
<defs>
<clipPath id="clip0_36_102">
<rect width="277.736" height="80" fill="white"/>
</clipPath>
</defs>
</svg>
