<svg width="174" height="50" viewBox="0 0 174 50" fill="none" xmlns="http://www.w3.org/2000/svg">
<g clip-path="url(#clip0_765_4955)">
<path d="M59.0951 33.7694C58.7291 32.6469 58.4973 31.7319 58.3997 31.0243H58.3265C57.5457 32.2443 56.5819 33.0862 55.4351 33.5498C54.3126 33.989 53.0438 34.2086 51.6286 34.2086C49.8718 34.2086 48.4687 33.7938 47.4195 32.9642C46.3703 32.1101 45.8457 30.9145 45.8457 29.3773C45.8457 28.0353 46.0897 26.9495 46.5777 26.1198C47.0901 25.2658 47.9563 24.5338 49.1764 23.9238C50.1524 23.4602 51.6164 23.0698 53.5684 22.7526C54.52 22.6062 55.1178 22.4964 55.3619 22.4232C56.1915 22.2036 56.8015 21.984 57.1919 21.7644C57.5823 21.5448 57.7775 21.2398 57.7775 20.8494V19.7879C57.7775 19.0559 57.4847 18.4947 56.8991 18.1043C56.3135 17.7139 55.5449 17.5187 54.5932 17.5187C53.4708 17.5187 52.5924 17.6773 51.958 17.9945C51.3236 18.2873 50.9332 18.6777 50.7868 19.1657C50.6892 19.4585 50.6404 19.8489 50.6404 20.3369C50.6404 20.6054 50.6526 20.7884 50.677 20.886L46.6143 21.5448C46.5167 21.252 46.4679 20.886 46.4679 20.4468C46.4679 19.4219 46.7607 18.4459 47.3463 17.5187C47.9563 16.5671 48.8592 15.7985 50.0548 15.2129C51.2504 14.6029 52.69 14.2979 54.3736 14.2979C59.5709 14.2979 62.1696 16.3231 62.1696 20.3735V29.0479C62.2916 30.4143 62.499 31.9881 62.7918 33.7694H59.0951ZM50.1646 28.7917C50.1646 29.5237 50.3964 30.0605 50.86 30.4021C51.348 30.7437 52.1654 30.9145 53.3122 30.9145C54.5566 30.9145 55.6059 30.5241 56.4599 29.7433C57.3383 28.9381 57.7775 27.9377 57.7775 26.7421V24.18C57.3139 24.546 56.5941 24.8754 55.6181 25.1682C55.008 25.339 54.4956 25.461 54.0808 25.5342C52.9828 25.7538 52.2142 25.9612 51.775 26.1564C50.7014 26.6201 50.1646 27.4985 50.1646 28.7917Z" fill="#FFE79E"/>
<path d="M113.978 33.7694C113.612 32.6469 113.38 31.7319 113.283 31.0243H113.209C112.428 32.2443 111.465 33.0862 110.318 33.5498C109.195 33.989 107.927 34.2086 106.511 34.2086C104.755 34.2086 103.352 33.7938 102.302 32.9642C101.253 32.1101 100.729 30.9145 100.729 29.3773C100.729 28.0353 100.973 26.9495 101.461 26.1198C101.973 25.2658 102.839 24.5338 104.059 23.9238C105.035 23.4602 106.499 23.0698 108.451 22.7526C109.403 22.6062 110.001 22.4964 110.245 22.4232C111.074 22.2036 111.684 21.984 112.075 21.7644C112.465 21.5448 112.66 21.2398 112.66 20.8494V19.7879C112.66 19.0559 112.367 18.4947 111.782 18.1043C111.196 17.7139 110.428 17.5187 109.476 17.5187C108.354 17.5187 107.475 17.6773 106.841 17.9945C106.206 18.2873 105.816 18.6777 105.67 19.1657C105.572 19.4585 105.523 19.8489 105.523 20.3369C105.523 20.6054 105.535 20.7884 105.56 20.886L101.497 21.5448C101.4 21.252 101.351 20.886 101.351 20.4468C101.351 19.4219 101.644 18.4459 102.229 17.5187C102.839 16.5671 103.742 15.7985 104.938 15.2129C106.133 14.6029 107.573 14.2979 109.256 14.2979C114.454 14.2979 117.052 16.3231 117.052 20.3735V29.0479C117.174 30.4143 117.382 31.9881 117.675 33.7694H113.978ZM105.047 28.7917C105.047 29.5237 105.279 30.0605 105.743 30.4021C106.231 30.7437 107.048 30.9145 108.195 30.9145C109.439 30.9145 110.489 30.5241 111.343 29.7433C112.221 28.9381 112.66 27.9377 112.66 26.7421V24.18C112.197 24.546 111.477 24.8754 110.501 25.1682C109.891 25.339 109.378 25.461 108.964 25.5342C107.866 25.7538 107.097 25.9612 106.658 26.1564C105.584 26.6201 105.047 27.4985 105.047 28.7917Z" fill="#FFE79E"/>
<path d="M64.4688 15.115H68.4582L68.6412 17.86C70.032 15.7372 72.2159 14.6758 75.1927 14.6758C79.1212 14.6758 81.0854 17.0792 81.0854 21.8861V34.1473H76.6933V22.6181C76.6933 21.1053 76.4005 20.0073 75.8149 19.3241C75.2537 18.6408 74.3753 18.2992 73.1797 18.2992C71.9841 18.2992 71.0081 18.6408 70.2516 19.3241C69.5196 19.9829 69.056 20.9223 68.8608 22.1423V34.1473H64.4688V15.115Z" fill="#FFE79E"/>
<path d="M82.5996 15.115H86.5891L86.7721 17.86C88.1629 15.7372 90.3467 14.6758 93.3236 14.6758C97.252 14.6758 99.2163 17.0792 99.2163 21.8861V34.1473H94.8242V22.6181C94.8242 21.1053 94.5314 20.0073 93.9458 19.3241C93.3846 18.6408 92.5062 18.2992 91.3105 18.2992C90.1149 18.2992 89.1389 18.6408 88.3825 19.3241C87.6505 19.9829 87.1869 20.9223 86.9917 22.1423V34.1473H82.5996V15.115Z" fill="#FFE79E"/>
<path d="M143.66 9.00977H148.193V34.3157H143.66V9.00977Z" fill="#FFE79E"/>
<path fill-rule="evenodd" clip-rule="evenodd" d="M13.1371 6.74414C10.5362 10.3898 8.20971 16.3731 7.54593 18.722C6.70447 21.6997 6.19302 24.781 6.68371 27.644C7.19266 30.6137 8.75994 33.2204 11.7726 35.1535C14.7426 37.0593 17.818 36.8684 20.4687 35.5714C22.2752 34.6874 23.8945 33.2954 25.2648 31.7152C26.6351 33.2954 28.2545 34.6874 30.061 35.5714C32.7117 36.8684 35.7871 37.0593 38.7571 35.1535C41.7697 33.2204 43.337 30.6137 43.846 27.644C44.3367 24.781 43.8252 21.6997 42.9837 18.722C42.32 16.3731 39.9934 10.3898 37.3925 6.74414L34.2002 9.02166C36.4487 12.1733 38.6179 17.693 39.21 19.7884C39.9939 22.5622 40.3249 24.974 39.9808 26.9816C39.655 28.8826 38.7103 30.5242 36.6393 31.8531C35.0062 32.901 33.4131 32.8458 31.7846 32.049C30.6513 31.4944 29.5246 30.5807 28.4839 29.4351C28.8123 28.8719 29.1404 28.2246 29.4389 27.5188C30.1561 25.823 30.7702 23.6326 30.7702 21.216C30.7702 18.404 30.3153 16.1354 29.5987 14.4633C29.2411 13.629 28.7982 12.8966 28.2722 12.3205C27.763 11.7628 27.0646 11.2336 26.1876 11.0582C25.6509 10.9508 25.2648 10.9678 25.2648 10.9678C25.2648 10.9678 24.9231 10.942 24.3421 11.0582C23.4651 11.2336 22.7667 11.7628 22.2574 12.3205C21.7314 12.8966 21.2886 13.629 20.931 14.4633C20.2144 16.1354 19.7594 18.404 19.7594 21.216C19.7594 23.6326 20.3735 25.823 21.0907 27.5188C21.3892 28.2246 21.7174 28.8719 22.0458 29.4351C21.0051 30.5807 19.8784 31.4944 18.7451 32.049C17.1166 32.8458 15.5235 32.901 13.8904 31.8531C11.8194 30.5242 10.8746 28.8826 10.5488 26.9816C10.2048 24.974 10.5358 22.5622 11.3196 19.7884C11.9118 17.693 14.081 12.1733 16.3295 9.02166L13.1371 6.74414ZM25.2648 14.8573C25.2444 14.8734 25.2067 14.9063 25.1534 14.9647C24.9932 15.1402 24.7661 15.4698 24.5354 16.0081C24.0756 17.081 23.6809 18.7993 23.6809 21.216C23.6809 22.9823 24.1343 24.648 24.7025 25.9913C24.8895 26.4335 25.0821 26.825 25.2648 27.1606C25.4476 26.825 25.6402 26.4335 25.8272 25.9913C26.3953 24.648 26.8488 22.9823 26.8488 21.216C26.8488 18.7993 26.4541 17.081 25.9942 16.0081C25.7636 15.4698 25.5365 15.1402 25.3763 14.9647C25.3229 14.9063 25.2853 14.8734 25.2648 14.8573Z" fill="#FFE79E"/>
<path fill-rule="evenodd" clip-rule="evenodd" d="M130.758 36.565C128.157 32.9194 125.831 26.9361 125.167 24.5871C124.326 21.6094 123.814 18.5282 124.305 15.6651C124.814 12.6955 126.381 10.0887 129.394 8.15563C132.364 6.24983 135.439 6.44076 138.09 7.73781C139.551 8.45268 140.889 9.49977 142.073 10.71L139.276 13.4592C138.347 12.5076 137.359 11.7461 136.366 11.2602C134.738 10.4634 133.145 10.4081 131.511 11.4561C129.44 12.785 128.496 14.4265 128.17 16.3275C127.977 17.4529 127.996 18.7052 128.189 20.0771H137.315H139.129V23.9985H137.315H129.084C129.831 26.3624 131.856 31.3521 133.951 34.2875L130.758 36.565Z" fill="#FFE79E"/>
<path fill-rule="evenodd" clip-rule="evenodd" d="M154.655 19.1328H150.123L157.044 34.509C156.621 36.1307 155.962 37.5287 153.844 38.7177C152.211 39.7656 150.618 39.7104 148.99 38.9136C147.997 38.4277 147.009 37.6662 146.08 36.7146L143.283 39.4638C144.467 40.674 145.805 41.7211 147.266 42.436C149.917 43.733 152.992 43.9239 155.962 42.0181C158.975 40.085 159.748 37.5287 161.062 34.4955L167.339 19.1328H162.816L158.96 29.0858L154.655 19.1328Z" fill="#FFE79E"/>
</g>
<defs>
<clipPath id="clip0_765_4955">
<rect width="173.585" height="50" fill="white"/>
</clipPath>
</defs>
</svg>
